<svg xmlns="http://www.w3.org/2000/svg" viewBox="0 0 860 618" width="860" height="618">
<style>
  @keyframes fadeIn { from { opacity: 0; } to { opacity: 1; } }
  @keyframes growRight { from { width: 0; } }
  @keyframes slideUp { from { transform: translateY(8px); opacity: 0; } to { transform: translateY(0); opacity: 1; } }
  .root { fill: #0A0A0A; }
  .panel { fill: #111111; rx: 12; ry: 12; stroke: #282828; stroke-width: 1; }
  .t { fill: #FFFFFF; font-family: "SF Mono", "Cascadia Code", "Fira Code", Consolas, monospace; }
  .t-title { font-size: 22px; font-weight: 700; letter-spacing: 0.08em; }
  .t-sub { font-size: 11px; fill: #888888; }
  .t-label { font-size: 11px; fill: #888888; text-transform: uppercase; letter-spacing: 0.06em; }
  .t-value { font-size: 28px; font-weight: 700; }
  .t-hook { font-size: 12px; }
  .t-small { font-size: 11px; }
  .t-section { font-size: 14px; font-weight: 600; fill: #C9A962; letter-spacing: 0.04em; }
  .anim { animation: fadeIn 0.6s ease both; }
  .bar-bg { fill: #1D1D1D; rx: 4; ry: 4; }
  .trend-dot { fill: #444444; }
</style>
<rect class="root" width="860" height="618" rx="16" ry="16"/>
<text x="24" y="34" class="t t-title anim" style="animation-delay:0.05s">METRICS WEEKLY</text>
<text x="836" y="26" class="t t-sub" text-anchor="end">2026-04-10&#160;~&#160;2026-04-16</text>
<text x="836" y="44" class="t t-sub" text-anchor="end">data: 2/7 days</text>
<rect class="panel" x="24.0" y="72" width="194.0" height="82"/>
<text x="38.0" y="94" class="t t-label">SESSIONS</text>
<text x="38.0" y="130" class="t t-value" fill="#FFFFFF">16</text>
<rect class="panel" x="230.0" y="72" width="194.0" height="82"/>
<text x="244.0" y="94" class="t t-label">EVENTS</text>
<text x="244.0" y="130" class="t t-value" fill="#FFFFFF">597</text>
<rect class="panel" x="436.0" y="72" width="194.0" height="82"/>
<text x="450.0" y="94" class="t t-label">SUCCESS RATE</text>
<text x="450.0" y="130" class="t t-value" fill="#22c55e">99.0%</text>
<rect class="bar-bg" x="450.0" y="138" width="166.0" height="6"/>
<rect fill="#22c55e" rx="4" ry="4" x="450.0" y="138" width="164.34" height="6" style="animation: growRight 1s ease both;"/>
<rect class="panel" x="642.0" y="72" width="194.0" height="82"/>
<text x="656.0" y="94" class="t t-label">AVG DURATION</text>
<text x="656.0" y="130" class="t t-value" fill="#FFFFFF">2 ms</text>
<text x="24" y="196" class="t t-section">DAILY TREND</text>
<circle class="trend-dot" cx="69.0" cy="283" r="4"/>
<text x="69.0" y="302" class="t t-sub" text-anchor="middle">04-10</text>
<circle class="trend-dot" cx="159.0" cy="283" r="4"/>
<text x="159.0" y="302" class="t t-sub" text-anchor="middle">04-11</text>
<circle class="trend-dot" cx="249.0" cy="283" r="4"/>
<text x="249.0" y="302" class="t t-sub" text-anchor="middle">04-12</text>
<circle class="trend-dot" cx="339.0" cy="283" r="4"/>
<text x="339.0" y="302" class="t t-sub" text-anchor="middle">04-13</text>
<circle class="trend-dot" cx="429.0" cy="283" r="4"/>
<text x="429.0" y="302" class="t t-sub" text-anchor="middle">04-14</text>
<rect fill="#3b82f6" rx="3" ry="3" x="499.0" y="208.0" width="18" height="80.0" opacity="0.9" style="animation: slideUp 0.5s ease 0.5s both;"/>
<rect fill="#C9A962" rx="3" ry="3" x="521.0" y="208.16632016632016" width="18" height="79.83367983367984" opacity="0.9" style="animation: slideUp 0.5s ease 0.55s both;"/>
<text x="519.0" y="302" class="t t-sub" text-anchor="middle">04-15</text>
<rect fill="#3b82f6" rx="3" ry="3" x="589.0" y="269.53846153846155" width="18" height="18.461538461538463" opacity="0.9" style="animation: slideUp 0.5s ease 0.6000000000000001s both;"/>
<rect fill="#C9A962" rx="3" ry="3" x="611.0" y="268.5405405405405" width="18" height="19.45945945945946" opacity="0.9" style="animation: slideUp 0.5s ease 0.6500000000000001s both;"/>
<text x="609.0" y="302" class="t t-sub" text-anchor="middle">04-16</text>
<rect fill="#3b82f6" rx="2" ry="2" x="656" y="188" width="10" height="10"/>
<text x="670" y="196" class="t t-sub">sessions</text>
<rect fill="#C9A962" rx="2" ry="2" x="736" y="188" width="10" height="10"/>
<text x="750" y="196" class="t t-sub">events/37</text>
<text x="24" y="324" class="t t-section">TOP HOOKS</text>
<text x="836" y="324" class="t t-sub" text-anchor="end">11 total</text>
<text x="24" y="354" class="t t-hook" style="animation: fadeIn 0.4s ease 0.0s both;">scale-gate</text>
<rect class="bar-bg" x="220" y="342" width="260" height="14"/>
<rect fill="#ef4444" rx="4" ry="4" x="220" y="342" width="260.0" height="14" opacity="0.9" style="animation: growRight 0.8s ease 0.0s both;"/>
<text x="490" y="354" class="t t-small">87</text>
<text x="536" y="354" class="t t-sub">2d</text>
<rect fill="none" stroke="#ef4444" stroke-width="1" rx="8" ry="8" x="570" y="340" width="72" height="18"/>
<text x="606" y="353" class="t t-small" text-anchor="middle" fill="#ef4444">99% block</text>
<text x="24" y="386" class="t t-hook" style="animation: fadeIn 0.4s ease 0.08s both;">pre-edit-gate</text>
<rect class="bar-bg" x="220" y="374" width="260" height="14"/>
<rect fill="#3b82f6" rx="4" ry="4" x="220" y="374" width="200.22988505747125" height="14" opacity="0.9" style="animation: growRight 0.8s ease 0.08s both;"/>
<text x="490" y="386" class="t t-small">67</text>
<text x="536" y="386" class="t t-sub">2d</text>
<text x="24" y="418" class="t t-hook" style="animation: fadeIn 0.4s ease 0.16s both;">skill-inject</text>
<rect class="bar-bg" x="220" y="406" width="260" height="14"/>
<rect fill="#3b82f6" rx="4" ry="4" x="220" y="406" width="197.24137931034483" height="14" opacity="0.9" style="animation: growRight 0.8s ease 0.16s both;"/>
<text x="490" y="418" class="t t-small">66</text>
<text x="536" y="418" class="t t-sub">2d</text>
<text x="24" y="450" class="t t-hook" style="animation: fadeIn 0.4s ease 0.24s both;">project-architecture-inject</text>
<rect class="bar-bg" x="220" y="438" width="260" height="14"/>
<rect fill="#3b82f6" rx="4" ry="4" x="220" y="438" width="191.26436781609195" height="14" opacity="0.9" style="animation: growRight 0.8s ease 0.24s both;"/>
<text x="490" y="450" class="t t-small">64</text>
<text x="536" y="450" class="t t-sub">2d</text>
<text x="24" y="482" class="t t-hook" style="animation: fadeIn 0.4s ease 0.32s both;">recall-entrypoint</text>
<rect class="bar-bg" x="220" y="470" width="260" height="14"/>
<rect fill="#3b82f6" rx="4" ry="4" x="220" y="470" width="191.26436781609195" height="14" opacity="0.9" style="animation: growRight 0.8s ease 0.32s both;"/>
<text x="490" y="482" class="t t-small">64</text>
<text x="536" y="482" class="t t-sub">2d</text>
<text x="24" y="514" class="t t-hook" style="animation: fadeIn 0.4s ease 0.4s both;">rules-inject</text>
<rect class="bar-bg" x="220" y="502" width="260" height="14"/>
<rect fill="#3b82f6" rx="4" ry="4" x="220" y="502" width="191.26436781609195" height="14" opacity="0.9" style="animation: growRight 0.8s ease 0.4s both;"/>
<text x="490" y="514" class="t t-small">64</text>
<text x="536" y="514" class="t t-sub">2d</text>
<text x="24" y="546" class="t t-hook" style="animation: fadeIn 0.4s ease 0.48s both;">context-monitor</text>
<rect class="bar-bg" x="220" y="534" width="260" height="14"/>
<rect fill="#3b82f6" rx="4" ry="4" x="220" y="534" width="188.27586206896552" height="14" opacity="0.9" style="animation: growRight 0.8s ease 0.48s both;"/>
<text x="490" y="546" class="t t-small">63</text>
<text x="536" y="546" class="t t-sub">2d</text>
<text x="24" y="578" class="t t-hook" style="animation: fadeIn 0.4s ease 0.56s both;">recall-capture</text>
<rect class="bar-bg" x="220" y="566" width="260" height="14"/>
<rect fill="#3b82f6" rx="4" ry="4" x="220" y="566" width="185.2873563218391" height="14" opacity="0.9" style="animation: growRight 0.8s ease 0.56s both;"/>
<text x="490" y="578" class="t t-small">62</text>
<text x="536" y="578" class="t t-sub">2d</text>
<text x="430.0" y="604" class="t t-sub" text-anchor="middle" fill="#f59e0b">session-end-consolidate: 4 failures | scale-gate: 99% blocked</text>
</svg>